name Walk8.mot
datacolumns 19
datarows 17
range 1.14500000 1.22500000
endheader

                time	   L_ground_force_vx	   L_ground_force_vy	   L_ground_force_vz	   L_ground_force_px	   L_ground_force_py	   L_ground_force_pz	   R_ground_force_vx	   R_ground_force_vy	   R_ground_force_vz	   R_ground_force_px	   R_ground_force_py	   R_ground_force_pz	   L_ground_torque_x	   L_ground_torque_y	   L_ground_torque_z	   R_ground_torque_x	   R_ground_torque_y	   R_ground_torque_z	
          1.14500000	         37.73419691	        484.55182184	         28.28415556	         -0.11323784	          0.00000000	         -0.04267107	         -0.05277857	          0.56677576	          0.04926772	          0.00058294	          0.00000000	          0.00009420	          0.00000000	          0.58806425	          0.00000000	          0.00000000	          0.00653420	          0.00000000	
          1.15000000	         41.67183111	        494.89171213	         29.03466027	         -0.11280775	          0.00000000	         -0.04250216	         -0.06393110	          0.51648017	          0.04017090	          0.00043514	          0.00000000	          0.00007060	          0.00000000	          0.58544666	          0.00000000	          0.00000000	          0.00907609	          0.00000000	
          1.15500000	         45.69319895	        505.47906248	         29.77420818	         -0.11236254	          0.00000000	         -0.04232091	         -0.07343763	          0.37435372	          0.02103130	          0.00015099	          0.00000000	          0.00002508	          0.00000000	          0.58306528	          0.00000000	          0.00000000	          0.01192052	          0.00000000	
          1.16000000	         49.78774064	        516.25789713	         30.48253134	         -0.11189125	          0.00000000	         -0.04211849	         -0.07920499	          0.10655630	         -0.01140836	         -0.00031073	          0.00000000	         -0.00004898	          0.00000000	          0.58133873	          0.00000000	          0.00000000	          0.01488592	          0.00000000	
          1.16500000	         53.94859543	        527.15611287	         31.13731221	         -0.11138450	          0.00000000	         -0.04188662	         -0.07843030	         -0.32418294	         -0.06058713	         -0.00099240	          0.00000000	         -0.00015843	          0.00000000	          0.58096165	          0.00000000	          0.00000000	          0.01767427	          0.00000000	
          1.17000000	         58.17188363	        538.08324337	         31.71445938	         -0.11083523	          0.00000000	         -0.04161734	         -0.06754960	         -0.95588812	         -0.12980341	         -0.00193299	          0.00000000	         -0.00030957	          0.00000000	          0.58280349	          0.00000000	          0.00000000	          0.01984262	          0.00000000	
          1.17500000	         62.45570922	        548.92804416	         32.18784152	         -0.11023829	          0.00000000	         -0.04130452	         -0.04225170	         -1.82306851	         -0.22172947	         -0.00316133	          0.00000000	         -0.00050708	          0.00000000	          0.58799958	          0.00000000	          0.00000000	          0.02077676	          0.00000000	
          1.18000000	         66.79960732	        559.56304746	         32.53202444	         -0.10959114	          0.00000000	         -0.04094205	          0.00240815	         -2.95049648	         -0.33773163	         -0.00468691	          0.00000000	         -0.00075253	          0.00000000	          0.59726501	          0.00000000	          0.00000000	          0.01967107	          0.00000000	
          1.18500000	         71.20368842	        569.84747715	         32.72260462	         -0.10889305	          0.00000000	         -0.04052578	          0.07175282	         -4.34470572	         -0.47697125	         -0.00648784	          0.00000000	         -0.00104247	          0.00000000	          0.61089513	          0.00000000	          0.00000000	          0.01552089	          0.00000000	
          1.19000000	         75.66705212	        579.63055068	         32.73733762	         -0.10814425	          0.00000000	         -0.04005459	          0.17103836	         -5.98298309	         -0.63527474	         -0.00849603	          0.00000000	         -0.00136604	          0.00000000	          0.62884048	          0.00000000	          0.00000000	          0.00713502	          0.00000000	
          1.19500000	         80.18688100	        588.75384010	         32.55732828	         -0.10734545	          0.00000000	         -0.03952963	          0.30476838	         -7.79980977	         -0.80378278	         -0.01057977	          0.00000000	         -0.00170213	          0.00000000	          0.65109312	          0.00000000	          0.00000000	         -0.00682168	          0.00000000	
          1.20000000	         84.75799458	        597.05133888	         32.16843364	         -0.10649814	          0.00000000	         -0.03895449	          0.47571776	         -9.67099687	         -0.96742181	         -0.01252433	          0.00000000	         -0.00201629	          0.00000000	          0.67771879	          0.00000000	          0.00000000	         -0.02774417	          0.00000000	
          1.20500000	         89.37237481	        604.35169539	         31.56144801	         -0.10560488	          0.00000000	         -0.03833425	          0.68362341	        -11.39618259	         -1.10328692	         -0.01401203	          0.00000000	         -0.00225754	          0.00000000	          0.70868050	          0.00000000	          0.00000000	         -0.05694865	          0.00000000	
          1.21000000	         94.01980896	        610.47880786	         30.73329217	         -0.10466817	          0.00000000	         -0.03767524	          0.92351728	        -12.68093287	         -1.17908596	         -0.01460384	          0.00000000	         -0.00235531	          0.00000000	          0.74398533	          0.00000000	          0.00000000	         -0.09546615	          0.00000000	
          1.21500000	         98.68887929	        615.24991304	         29.68564513	         -0.10368975	          0.00000000	         -0.03698473	          1.18370731	        -13.12043130	         -1.15187103	         -0.01372564	          0.00000000	         -0.00221729	          0.00000000	          0.78343587	          0.00000000	          0.00000000	         -0.14375590	          0.00000000	
          1.22000000	        103.36503284	        618.47588875	         28.42467513	         -0.10267294	          0.00000000	         -0.03626920	          1.44345802	        -12.18765861	         -0.96737459	         -0.01066344	          0.00000000	         -0.00172862	          0.00000000	          0.82596530	          0.00000000	          0.00000000	         -0.20132882	          0.00000000	
          1.22500000	        108.02644532	        619.95977317	         26.96056584	         -0.10162383	          0.00000000	         -0.03553491	          1.67048909	         -9.23003128	         -0.56037012	         -0.00457320	          0.00000000	         -0.00075341	          0.00000000	          0.87010247	          0.00000000	          0.00000000	         -0.26627737	          0.00000000	
